<mxfile host="app.diagrams.net" agent="Mozilla/5.0 (Windows NT 10.0; Win64; x64) AppleWebKit/537.36 (KHTML, like Gecko) Chrome/131.0.0.0 Safari/537.36" version="24.8.8">
  <diagram name="Complete API Routing Diagram" id="XdHECtqL5oT7YwH_FqM8">
    <mxGraphModel dx="2074" dy="1098" grid="1" gridSize="10" guides="1" tooltips="1" connect="1" arrows="1" fold="1" page="1" pageScale="1" pageWidth="827" pageHeight="1169" math="0" shadow="0">
      <root>
        <mxCell id="0" />
        <mxCell id="1" parent="0" />
        <mxCell id="K9lvbok_ld0rpNyF6cux-14" value="API Gateway" style="shape=rectangle;whiteSpace=wrap;html=1;fillColor=#dae8fc;" vertex="1" parent="1">
          <mxGeometry x="310" y="60" width="200" height="60" as="geometry" />
        </mxCell>
        <mxCell id="K9lvbok_ld0rpNyF6cux-15" value="Auth Routes" style="shape=rectangle;whiteSpace=wrap;html=1;fillColor=#fff2cc;verticalAlign=top;" vertex="1" parent="1">
          <mxGeometry x="200" y="170" width="420" height="180" as="geometry" />
        </mxCell>
        <mxCell id="K9lvbok_ld0rpNyF6cux-16" value="POST /auth/register" style="ellipse;whiteSpace=wrap;html=1;" vertex="1" parent="1">
          <mxGeometry x="214" y="200" width="166" height="30" as="geometry" />
        </mxCell>
        <mxCell id="K9lvbok_ld0rpNyF6cux-17" value="POST /auth/login" style="ellipse;whiteSpace=wrap;html=1;" vertex="1" parent="1">
          <mxGeometry x="214" y="235" width="166" height="30" as="geometry" />
        </mxCell>
        <mxCell id="K9lvbok_ld0rpNyF6cux-18" value="POST /auth/logout" style="ellipse;whiteSpace=wrap;html=1;" vertex="1" parent="1">
          <mxGeometry x="214" y="270" width="166" height="30" as="geometry" />
        </mxCell>
        <mxCell id="K9lvbok_ld0rpNyF6cux-19" value="POST /auth/password-reset" style="ellipse;whiteSpace=wrap;html=1;" vertex="1" parent="1">
          <mxGeometry x="214" y="310" width="166" height="30" as="geometry" />
        </mxCell>
        <mxCell id="K9lvbok_ld0rpNyF6cux-20" value="User Routes" style="shape=rectangle;whiteSpace=wrap;html=1;fillColor=#d5e8d4;verticalAlign=top;" vertex="1" parent="1">
          <mxGeometry x="200" y="370" width="420" height="170" as="geometry" />
        </mxCell>
        <mxCell id="K9lvbok_ld0rpNyF6cux-21" value="GET /users" style="ellipse;whiteSpace=wrap;html=1;" vertex="1" parent="1">
          <mxGeometry x="214" y="400" width="166" height="30" as="geometry" />
        </mxCell>
        <mxCell id="K9lvbok_ld0rpNyF6cux-22" value="GET /users/{user_id}" style="ellipse;whiteSpace=wrap;html=1;" vertex="1" parent="1">
          <mxGeometry x="214" y="435" width="166" height="30" as="geometry" />
        </mxCell>
        <mxCell id="K9lvbok_ld0rpNyF6cux-23" value="PUT /users/{user_id}" style="ellipse;whiteSpace=wrap;html=1;" vertex="1" parent="1">
          <mxGeometry x="214" y="470" width="166" height="30" as="geometry" />
        </mxCell>
        <mxCell id="K9lvbok_ld0rpNyF6cux-24" value="DELETE /users/{user_id}" style="ellipse;whiteSpace=wrap;html=1;" vertex="1" parent="1">
          <mxGeometry x="214" y="506" width="166" height="30" as="geometry" />
        </mxCell>
        <mxCell id="K9lvbok_ld0rpNyF6cux-25" value="Profile Routes" style="shape=rectangle;whiteSpace=wrap;html=1;fillColor=#f8cecc;verticalAlign=top;" vertex="1" parent="1">
          <mxGeometry x="120" y="570" width="580" height="230" as="geometry" />
        </mxCell>
        <mxCell id="K9lvbok_ld0rpNyF6cux-68" style="edgeStyle=orthogonalEdgeStyle;rounded=0;orthogonalLoop=1;jettySize=auto;html=1;exitX=1;exitY=0.5;exitDx=0;exitDy=0;" edge="1" parent="1" source="K9lvbok_ld0rpNyF6cux-26" target="K9lvbok_ld0rpNyF6cux-57">
          <mxGeometry relative="1" as="geometry" />
        </mxCell>
        <mxCell id="K9lvbok_ld0rpNyF6cux-26" value="GET /users/{user_id}/profiles" style="ellipse;whiteSpace=wrap;html=1;" vertex="1" parent="1">
          <mxGeometry x="130" y="600" width="250" height="30" as="geometry" />
        </mxCell>
        <mxCell id="K9lvbok_ld0rpNyF6cux-69" style="edgeStyle=orthogonalEdgeStyle;rounded=0;orthogonalLoop=1;jettySize=auto;html=1;entryX=0;entryY=0.5;entryDx=0;entryDy=0;" edge="1" parent="1" source="K9lvbok_ld0rpNyF6cux-27" target="K9lvbok_ld0rpNyF6cux-58">
          <mxGeometry relative="1" as="geometry" />
        </mxCell>
        <mxCell id="K9lvbok_ld0rpNyF6cux-27" value="POST /users/{user_id}/profiles" style="ellipse;whiteSpace=wrap;html=1;" vertex="1" parent="1">
          <mxGeometry x="130" y="640" width="250" height="30" as="geometry" />
        </mxCell>
        <mxCell id="K9lvbok_ld0rpNyF6cux-70" style="edgeStyle=orthogonalEdgeStyle;rounded=0;orthogonalLoop=1;jettySize=auto;html=1;entryX=0;entryY=0.5;entryDx=0;entryDy=0;" edge="1" parent="1" source="K9lvbok_ld0rpNyF6cux-28" target="K9lvbok_ld0rpNyF6cux-59">
          <mxGeometry relative="1" as="geometry" />
        </mxCell>
        <mxCell id="K9lvbok_ld0rpNyF6cux-28" value="GET /users/{user_id}/profiles/{profile_id}&amp;nbsp;" style="ellipse;whiteSpace=wrap;html=1;" vertex="1" parent="1">
          <mxGeometry x="130" y="680" width="250" height="30" as="geometry" />
        </mxCell>
        <mxCell id="K9lvbok_ld0rpNyF6cux-71" style="edgeStyle=orthogonalEdgeStyle;rounded=0;orthogonalLoop=1;jettySize=auto;html=1;entryX=0;entryY=0.5;entryDx=0;entryDy=0;" edge="1" parent="1" source="K9lvbok_ld0rpNyF6cux-29" target="K9lvbok_ld0rpNyF6cux-60">
          <mxGeometry relative="1" as="geometry" />
        </mxCell>
        <mxCell id="K9lvbok_ld0rpNyF6cux-29" value="PUT /users/{user_id}/profiles/{profile_id}" style="ellipse;whiteSpace=wrap;html=1;" vertex="1" parent="1">
          <mxGeometry x="130" y="720" width="250" height="30" as="geometry" />
        </mxCell>
        <mxCell id="K9lvbok_ld0rpNyF6cux-72" style="edgeStyle=orthogonalEdgeStyle;rounded=0;orthogonalLoop=1;jettySize=auto;html=1;entryX=0;entryY=0.5;entryDx=0;entryDy=0;" edge="1" parent="1" source="K9lvbok_ld0rpNyF6cux-30" target="K9lvbok_ld0rpNyF6cux-61">
          <mxGeometry relative="1" as="geometry" />
        </mxCell>
        <mxCell id="K9lvbok_ld0rpNyF6cux-30" value="DELETE /users/{user_id}/profiles/{profile_id}" style="ellipse;whiteSpace=wrap;html=1;" vertex="1" parent="1">
          <mxGeometry x="130" y="760" width="250" height="30" as="geometry" />
        </mxCell>
        <mxCell id="K9lvbok_ld0rpNyF6cux-31" value="Content Routes" style="shape=rectangle;whiteSpace=wrap;html=1;fillColor=#e1d5e7;verticalAlign=top;" vertex="1" parent="1">
          <mxGeometry x="120" y="840" width="580" height="190" as="geometry" />
        </mxCell>
        <mxCell id="K9lvbok_ld0rpNyF6cux-77" style="edgeStyle=orthogonalEdgeStyle;rounded=0;orthogonalLoop=1;jettySize=auto;html=1;exitX=1;exitY=0.5;exitDx=0;exitDy=0;entryX=0;entryY=0.5;entryDx=0;entryDy=0;" edge="1" parent="1" source="K9lvbok_ld0rpNyF6cux-32" target="K9lvbok_ld0rpNyF6cux-73">
          <mxGeometry relative="1" as="geometry" />
        </mxCell>
        <mxCell id="K9lvbok_ld0rpNyF6cux-32" value="GET /content" style="ellipse;whiteSpace=wrap;html=1;" vertex="1" parent="1">
          <mxGeometry x="130" y="870" width="250" height="30" as="geometry" />
        </mxCell>
        <mxCell id="K9lvbok_ld0rpNyF6cux-33" value="GET /content/{content_id}" style="ellipse;whiteSpace=wrap;html=1;" vertex="1" parent="1">
          <mxGeometry x="130" y="910" width="250" height="30" as="geometry" />
        </mxCell>
        <mxCell id="K9lvbok_ld0rpNyF6cux-79" style="edgeStyle=orthogonalEdgeStyle;rounded=0;orthogonalLoop=1;jettySize=auto;html=1;exitX=1;exitY=0.5;exitDx=0;exitDy=0;entryX=0;entryY=0.5;entryDx=0;entryDy=0;" edge="1" parent="1" source="K9lvbok_ld0rpNyF6cux-34" target="K9lvbok_ld0rpNyF6cux-75">
          <mxGeometry relative="1" as="geometry" />
        </mxCell>
        <mxCell id="K9lvbok_ld0rpNyF6cux-34" value="GET /content/recommendations" style="ellipse;whiteSpace=wrap;html=1;" vertex="1" parent="1">
          <mxGeometry x="130" y="950" width="250" height="30" as="geometry" />
        </mxCell>
        <mxCell id="K9lvbok_ld0rpNyF6cux-80" style="edgeStyle=orthogonalEdgeStyle;rounded=0;orthogonalLoop=1;jettySize=auto;html=1;exitX=1;exitY=0.5;exitDx=0;exitDy=0;entryX=0;entryY=0.5;entryDx=0;entryDy=0;" edge="1" parent="1" source="K9lvbok_ld0rpNyF6cux-35" target="K9lvbok_ld0rpNyF6cux-76">
          <mxGeometry relative="1" as="geometry" />
        </mxCell>
        <mxCell id="K9lvbok_ld0rpNyF6cux-35" value="GET /content/search" style="ellipse;whiteSpace=wrap;html=1;" vertex="1" parent="1">
          <mxGeometry x="130" y="990" width="250" height="30" as="geometry" />
        </mxCell>
        <mxCell id="K9lvbok_ld0rpNyF6cux-36" value="Subscription Routes" style="shape=rectangle;whiteSpace=wrap;html=1;fillColor=#d9e8e1;verticalAlign=top;" vertex="1" parent="1">
          <mxGeometry x="120" y="1060" width="580" height="210" as="geometry" />
        </mxCell>
        <mxCell id="K9lvbok_ld0rpNyF6cux-85" style="edgeStyle=orthogonalEdgeStyle;rounded=0;orthogonalLoop=1;jettySize=auto;html=1;exitX=1;exitY=0.5;exitDx=0;exitDy=0;entryX=0;entryY=0.5;entryDx=0;entryDy=0;" edge="1" parent="1" source="K9lvbok_ld0rpNyF6cux-37" target="K9lvbok_ld0rpNyF6cux-81">
          <mxGeometry relative="1" as="geometry" />
        </mxCell>
        <mxCell id="K9lvbok_ld0rpNyF6cux-37" value="GET /subscriptions" style="ellipse;whiteSpace=wrap;html=1;" vertex="1" parent="1">
          <mxGeometry x="130" y="1100" width="250" height="30" as="geometry" />
        </mxCell>
        <mxCell id="K9lvbok_ld0rpNyF6cux-86" style="edgeStyle=orthogonalEdgeStyle;rounded=0;orthogonalLoop=1;jettySize=auto;html=1;exitX=1;exitY=0.5;exitDx=0;exitDy=0;entryX=0;entryY=0.5;entryDx=0;entryDy=0;" edge="1" parent="1" source="K9lvbok_ld0rpNyF6cux-38" target="K9lvbok_ld0rpNyF6cux-82">
          <mxGeometry relative="1" as="geometry" />
        </mxCell>
        <mxCell id="K9lvbok_ld0rpNyF6cux-38" value="POST /subscriptions" style="ellipse;whiteSpace=wrap;html=1;" vertex="1" parent="1">
          <mxGeometry x="130" y="1140" width="250" height="30" as="geometry" />
        </mxCell>
        <mxCell id="K9lvbok_ld0rpNyF6cux-87" style="edgeStyle=orthogonalEdgeStyle;rounded=0;orthogonalLoop=1;jettySize=auto;html=1;exitX=1;exitY=0.5;exitDx=0;exitDy=0;entryX=0;entryY=0.5;entryDx=0;entryDy=0;" edge="1" parent="1" source="K9lvbok_ld0rpNyF6cux-39" target="K9lvbok_ld0rpNyF6cux-83">
          <mxGeometry relative="1" as="geometry" />
        </mxCell>
        <mxCell id="K9lvbok_ld0rpNyF6cux-39" value="PUT /subscriptions/{subscription_id}" style="ellipse;whiteSpace=wrap;html=1;" vertex="1" parent="1">
          <mxGeometry x="130" y="1180" width="250" height="30" as="geometry" />
        </mxCell>
        <mxCell id="K9lvbok_ld0rpNyF6cux-88" style="edgeStyle=orthogonalEdgeStyle;rounded=0;orthogonalLoop=1;jettySize=auto;html=1;exitX=1;exitY=0.5;exitDx=0;exitDy=0;entryX=0;entryY=0.5;entryDx=0;entryDy=0;" edge="1" parent="1" source="K9lvbok_ld0rpNyF6cux-40" target="K9lvbok_ld0rpNyF6cux-84">
          <mxGeometry relative="1" as="geometry" />
        </mxCell>
        <mxCell id="K9lvbok_ld0rpNyF6cux-40" value="DELETE /subscriptions/{subscription_id}" style="ellipse;whiteSpace=wrap;html=1;" vertex="1" parent="1">
          <mxGeometry x="130" y="1220" width="250" height="30" as="geometry" />
        </mxCell>
        <mxCell id="K9lvbok_ld0rpNyF6cux-41" value="AuthController@register" style="ellipse;whiteSpace=wrap;html=1;" vertex="1" parent="1">
          <mxGeometry x="430" y="200" width="180" height="30" as="geometry" />
        </mxCell>
        <mxCell id="K9lvbok_ld0rpNyF6cux-42" value="AuthController@login" style="ellipse;whiteSpace=wrap;html=1;" vertex="1" parent="1">
          <mxGeometry x="430" y="235" width="180" height="30" as="geometry" />
        </mxCell>
        <mxCell id="K9lvbok_ld0rpNyF6cux-43" value="AuthController@logout" style="ellipse;whiteSpace=wrap;html=1;" vertex="1" parent="1">
          <mxGeometry x="430" y="270" width="180" height="30" as="geometry" />
        </mxCell>
        <mxCell id="K9lvbok_ld0rpNyF6cux-44" value="AuthController@resetPassword" style="ellipse;whiteSpace=wrap;html=1;" vertex="1" parent="1">
          <mxGeometry x="430" y="310" width="180" height="30" as="geometry" />
        </mxCell>
        <mxCell id="K9lvbok_ld0rpNyF6cux-45" value="" style="endArrow=classic;html=1;rounded=0;entryX=0;entryY=0.5;entryDx=0;entryDy=0;exitX=1;exitY=0.5;exitDx=0;exitDy=0;" edge="1" parent="1" source="K9lvbok_ld0rpNyF6cux-16" target="K9lvbok_ld0rpNyF6cux-41">
          <mxGeometry width="50" height="50" relative="1" as="geometry">
            <mxPoint x="290" y="520" as="sourcePoint" />
            <mxPoint x="340" y="470" as="targetPoint" />
          </mxGeometry>
        </mxCell>
        <mxCell id="K9lvbok_ld0rpNyF6cux-46" value="" style="endArrow=classic;html=1;rounded=0;entryX=0;entryY=0.5;entryDx=0;entryDy=0;exitX=1;exitY=0.5;exitDx=0;exitDy=0;" edge="1" parent="1">
          <mxGeometry width="50" height="50" relative="1" as="geometry">
            <mxPoint x="380" y="249.66" as="sourcePoint" />
            <mxPoint x="430" y="249.66" as="targetPoint" />
          </mxGeometry>
        </mxCell>
        <mxCell id="K9lvbok_ld0rpNyF6cux-47" value="" style="endArrow=classic;html=1;rounded=0;entryX=0;entryY=0.5;entryDx=0;entryDy=0;exitX=1;exitY=0.5;exitDx=0;exitDy=0;" edge="1" parent="1">
          <mxGeometry width="50" height="50" relative="1" as="geometry">
            <mxPoint x="380" y="284.65999999999997" as="sourcePoint" />
            <mxPoint x="430" y="284.65999999999997" as="targetPoint" />
          </mxGeometry>
        </mxCell>
        <mxCell id="K9lvbok_ld0rpNyF6cux-48" value="" style="endArrow=classic;html=1;rounded=0;entryX=0;entryY=0.5;entryDx=0;entryDy=0;exitX=1;exitY=0.5;exitDx=0;exitDy=0;" edge="1" parent="1">
          <mxGeometry width="50" height="50" relative="1" as="geometry">
            <mxPoint x="380" y="324.65999999999997" as="sourcePoint" />
            <mxPoint x="430" y="324.65999999999997" as="targetPoint" />
          </mxGeometry>
        </mxCell>
        <mxCell id="K9lvbok_ld0rpNyF6cux-49" value="UserController@index" style="ellipse;whiteSpace=wrap;html=1;" vertex="1" parent="1">
          <mxGeometry x="430" y="400" width="180" height="30" as="geometry" />
        </mxCell>
        <mxCell id="K9lvbok_ld0rpNyF6cux-50" value="UserController@show" style="ellipse;whiteSpace=wrap;html=1;" vertex="1" parent="1">
          <mxGeometry x="430" y="435" width="180" height="30" as="geometry" />
        </mxCell>
        <mxCell id="K9lvbok_ld0rpNyF6cux-51" value="UserController@update" style="ellipse;whiteSpace=wrap;html=1;" vertex="1" parent="1">
          <mxGeometry x="430" y="470" width="180" height="30" as="geometry" />
        </mxCell>
        <mxCell id="K9lvbok_ld0rpNyF6cux-52" value="UserController@destroy" style="ellipse;whiteSpace=wrap;html=1;" vertex="1" parent="1">
          <mxGeometry x="430" y="506" width="180" height="30" as="geometry" />
        </mxCell>
        <mxCell id="K9lvbok_ld0rpNyF6cux-53" value="" style="endArrow=classic;html=1;rounded=0;entryX=0;entryY=0.5;entryDx=0;entryDy=0;exitX=1;exitY=0.5;exitDx=0;exitDy=0;" edge="1" parent="1">
          <mxGeometry width="50" height="50" relative="1" as="geometry">
            <mxPoint x="380" y="414.65999999999997" as="sourcePoint" />
            <mxPoint x="430" y="414.65999999999997" as="targetPoint" />
          </mxGeometry>
        </mxCell>
        <mxCell id="K9lvbok_ld0rpNyF6cux-54" value="" style="endArrow=classic;html=1;rounded=0;entryX=0;entryY=0.5;entryDx=0;entryDy=0;exitX=1;exitY=0.5;exitDx=0;exitDy=0;" edge="1" parent="1">
          <mxGeometry width="50" height="50" relative="1" as="geometry">
            <mxPoint x="380" y="449.65999999999997" as="sourcePoint" />
            <mxPoint x="430" y="449.65999999999997" as="targetPoint" />
          </mxGeometry>
        </mxCell>
        <mxCell id="K9lvbok_ld0rpNyF6cux-55" value="" style="endArrow=classic;html=1;rounded=0;entryX=0;entryY=0.5;entryDx=0;entryDy=0;exitX=1;exitY=0.5;exitDx=0;exitDy=0;" edge="1" parent="1">
          <mxGeometry width="50" height="50" relative="1" as="geometry">
            <mxPoint x="380" y="484.65999999999997" as="sourcePoint" />
            <mxPoint x="430" y="484.65999999999997" as="targetPoint" />
          </mxGeometry>
        </mxCell>
        <mxCell id="K9lvbok_ld0rpNyF6cux-56" value="" style="endArrow=classic;html=1;rounded=0;entryX=0;entryY=0.5;entryDx=0;entryDy=0;exitX=1;exitY=0.5;exitDx=0;exitDy=0;" edge="1" parent="1">
          <mxGeometry width="50" height="50" relative="1" as="geometry">
            <mxPoint x="380" y="520.66" as="sourcePoint" />
            <mxPoint x="430" y="520.66" as="targetPoint" />
          </mxGeometry>
        </mxCell>
        <mxCell id="K9lvbok_ld0rpNyF6cux-57" value="ProfileController@index" style="ellipse;whiteSpace=wrap;html=1;" vertex="1" parent="1">
          <mxGeometry x="510" y="600" width="180" height="30" as="geometry" />
        </mxCell>
        <mxCell id="K9lvbok_ld0rpNyF6cux-58" value="ProfileController@store" style="ellipse;whiteSpace=wrap;html=1;" vertex="1" parent="1">
          <mxGeometry x="510" y="640" width="180" height="30" as="geometry" />
        </mxCell>
        <mxCell id="K9lvbok_ld0rpNyF6cux-59" value="ProfileController@show" style="ellipse;whiteSpace=wrap;html=1;" vertex="1" parent="1">
          <mxGeometry x="510" y="680" width="180" height="30" as="geometry" />
        </mxCell>
        <mxCell id="K9lvbok_ld0rpNyF6cux-60" value="ProfileController@update" style="ellipse;whiteSpace=wrap;html=1;" vertex="1" parent="1">
          <mxGeometry x="510" y="720" width="180" height="30" as="geometry" />
        </mxCell>
        <mxCell id="K9lvbok_ld0rpNyF6cux-61" value="ProfileController@destroy" style="ellipse;whiteSpace=wrap;html=1;" vertex="1" parent="1">
          <mxGeometry x="510" y="760" width="180" height="30" as="geometry" />
        </mxCell>
        <mxCell id="K9lvbok_ld0rpNyF6cux-73" value="ContentController@index" style="ellipse;whiteSpace=wrap;html=1;" vertex="1" parent="1">
          <mxGeometry x="470" y="870" width="220" height="30" as="geometry" />
        </mxCell>
        <mxCell id="K9lvbok_ld0rpNyF6cux-74" value="ContentController@show" style="ellipse;whiteSpace=wrap;html=1;" vertex="1" parent="1">
          <mxGeometry x="470" y="910" width="220" height="30" as="geometry" />
        </mxCell>
        <mxCell id="K9lvbok_ld0rpNyF6cux-75" value="&amp;nbsp;ContentController@recommendations" style="ellipse;whiteSpace=wrap;html=1;" vertex="1" parent="1">
          <mxGeometry x="470" y="950" width="220" height="30" as="geometry" />
        </mxCell>
        <mxCell id="K9lvbok_ld0rpNyF6cux-76" value="&lt;div&gt;&lt;span style=&quot;background-color: initial;&quot;&gt;ContentController@search&lt;/span&gt;&lt;/div&gt;" style="ellipse;whiteSpace=wrap;html=1;" vertex="1" parent="1">
          <mxGeometry x="470" y="990" width="220" height="30" as="geometry" />
        </mxCell>
        <mxCell id="K9lvbok_ld0rpNyF6cux-78" style="edgeStyle=orthogonalEdgeStyle;rounded=0;orthogonalLoop=1;jettySize=auto;html=1;exitX=1;exitY=0.5;exitDx=0;exitDy=0;entryX=0.023;entryY=0.5;entryDx=0;entryDy=0;entryPerimeter=0;" edge="1" parent="1" source="K9lvbok_ld0rpNyF6cux-33" target="K9lvbok_ld0rpNyF6cux-74">
          <mxGeometry relative="1" as="geometry" />
        </mxCell>
        <mxCell id="K9lvbok_ld0rpNyF6cux-81" value="SubscriptionController@index" style="ellipse;whiteSpace=wrap;html=1;" vertex="1" parent="1">
          <mxGeometry x="440" y="1100" width="250" height="30" as="geometry" />
        </mxCell>
        <mxCell id="K9lvbok_ld0rpNyF6cux-82" value="SubscriptionController@store" style="ellipse;whiteSpace=wrap;html=1;" vertex="1" parent="1">
          <mxGeometry x="440" y="1140" width="250" height="30" as="geometry" />
        </mxCell>
        <mxCell id="K9lvbok_ld0rpNyF6cux-83" value="SubscriptionController@update" style="ellipse;whiteSpace=wrap;html=1;" vertex="1" parent="1">
          <mxGeometry x="440" y="1180" width="250" height="30" as="geometry" />
        </mxCell>
        <mxCell id="K9lvbok_ld0rpNyF6cux-84" value="SubscriptionController@destroy" style="ellipse;whiteSpace=wrap;html=1;" vertex="1" parent="1">
          <mxGeometry x="440" y="1220" width="250" height="30" as="geometry" />
        </mxCell>
      </root>
    </mxGraphModel>
  </diagram>
</mxfile>
